<mxfile host="app.diagrams.net" modified="2024-06-12T05:17:09.414Z" agent="Mozilla/5.0 (Windows NT 10.0; Win64; x64) AppleWebKit/537.36 (KHTML, like Gecko) Chrome/99.0.4844.84 Safari/537.36 HBPC/12.1.3.306" version="24.3.1" etag="KRxuV50ewMVAItOcsykw" type="github">
  <diagram name="第 1 页" id="bvpQmwE52R1mKaB3eYF0">
    <mxGraphModel>
      <root>
        <mxCell id="0" />
        <mxCell id="1" parent="0" />
      </root>
    </mxGraphModel>
  </diagram>
</mxfile>
